<svg width="448" height="448" viewBox="0 0 448 448" fill="none" xmlns="http://www.w3.org/2000/svg">
<path fill-rule="evenodd" clip-rule="evenodd" d="M448 224C448 347.713 347.713 448 224 448C100.287 448 0 347.713 0 224C0 100.287 100.287 0 224 0C347.713 0 448 100.287 448 224ZM113.107 221.401C111.627 222.875 111.627 225.255 113.107 226.729L210.409 323.641C213.93 327.162 219.206 321.876 215.691 318.365L127.617 230.349C126.169 228.907 126.674 227.735 128.784 227.735H329.077C331.171 227.735 332.864 226 332.864 224C332.864 221.943 331.192 220.271 329.077 220.271H128.784C126.695 220.271 126.148 219.125 127.617 217.657L215.691 129.635C219.206 126.12 213.93 120.843 210.409 124.359L113.107 221.401Z" fill="#FD8F00"/>
</svg>
