<svg width="449" height="449" viewBox="0 0 449 449" fill="none" xmlns="http://www.w3.org/2000/svg">
<path fill-rule="evenodd" clip-rule="evenodd" d="M448.667 224.333C448.667 348.047 348.38 448.333 224.667 448.333C100.953 448.333 0.666626 348.047 0.666626 224.333C0.666626 100.62 100.953 0.333374 224.667 0.333374C348.38 0.333374 448.667 100.62 448.667 224.333ZM113.773 221.734C112.294 223.208 112.294 225.589 113.773 227.063L211.076 323.975C214.597 327.495 219.873 322.209 216.357 318.699L128.284 230.683C126.836 229.24 127.341 228.068 129.45 228.068H329.744C331.838 228.068 333.53 226.334 333.53 224.334C333.53 222.276 331.858 220.604 329.744 220.604H129.45C127.362 220.604 126.815 219.459 128.284 217.99L216.357 129.969C219.873 126.453 214.597 121.177 211.076 124.693L113.773 221.734Z" fill="#606E79"/>
</svg>
