<?xml version="1.0" encoding="utf-8"?>
<!-- Generator: Adobe Illustrator 26.5.0, SVG Export Plug-In . SVG Version: 6.00 Build 0)  -->
<svg version="1.1" id="Layer_1" xmlns="http://www.w3.org/2000/svg" xmlns:xlink="http://www.w3.org/1999/xlink" x="0px" y="0px"
	 viewBox="0 0 512 512" style="enable-background:new 0 0 512 512;" xml:space="preserve">
<style type="text/css">
	.st0{fill:#123329;}
	.st1{fill:#FFFFFF;}
	.st2{fill:#C1962A;}
</style>
<g id="XMLID_1_">
	<rect id="XMLID_2_" y="116.15" class="st0" width="512" height="279.71"/>
	<path id="XMLID_3_" class="st1" d="M91.74,297.94h-0.7c-0.14-2.38-0.98-3.09-2.81-3.09h-7.57v8.84c0,2.24,0.56,3.09,3.51,3.09v0.7
		h-9.82v-0.7c2.38-0.14,2.95-0.7,2.95-3.93v-15.71c0-2.67-0.28-3.65-3.09-3.65v-0.84h17.96v4.91H91.6
		c-0.14-2.38-0.84-3.37-3.51-3.37h-7.43v9.4h8c1.54,0,2.24-0.84,2.38-2.67h0.7V297.94L91.74,297.94z"/>
	<path id="XMLID_4_" class="st1" d="M105.35,290.79c-2.95,0.14-2.95,0.56-2.95,3.51v9.82c0,2.24,0.56,2.67,2.95,2.67v0.7h-8.84v-0.7
		c1.96-0.14,2.1-0.14,2.38-0.7c0.42-0.7,0.42-2.81,0.42-3.65v-8.84c0-2.1-0.42-2.67-2.95-2.67v-0.7h8.84v0.56H105.35z"/>
	<path id="XMLID_5_" class="st1" d="M109.69,290.23c1.68-0.28,4.07-0.42,7.15-0.42c1.4-0.14,7.86,0,7.86,4.91
		c0,3.37-2.67,4.21-3.79,4.77c0.7,0.56,0.98,0.84,2.38,4.07c1.4,2.67,2.1,3.37,3.51,3.51v0.7c-2.38,0.14-4.49-0.84-6.03-3.51
		c-0.42-0.7-2.1-3.79-2.67-4.35h-2.67v4.07c0,2.24,0.14,2.81,1.96,2.81h1.12v0.7h-8.84v-0.7c2.67,0.14,2.81-0.7,2.81-2.24v-11.5
		c0-1.96-0.28-1.96-2.81-1.96L109.69,290.23L109.69,290.23z M115.59,299.06h1.96c0.98,0,4.21,0,4.21-4.21
		c0-3.37-2.67-4.35-4.35-4.35c-0.7,0-1.26,0.14-1.68,0.14L115.59,299.06L115.59,299.06z"/>
	<path id="XMLID_8_" class="st1" d="M140.27,293.87h-0.7c-0.84-2.24-2.24-3.65-4.21-3.65c-1.68,0-2.81,1.26-2.81,2.67
		c0,1.68,0.98,2.24,5.19,4.91c0.98,0.7,3.51,2.24,3.51,5.19c0,2.67-1.96,4.91-5.33,4.91c-0.98,0-1.26-0.14-3.51-0.7
		c-0.14,0-0.28,0-0.56,0c-0.28,0-0.42,0.14-0.42,0.28h-0.7l-0.56-4.21h0.84c1.26,3.37,3.65,3.79,4.49,3.79
		c1.12,0,3.51-0.7,3.51-2.95c0-2.1-1.54-3.09-4.35-4.91c-3.65-2.1-4.21-3.79-4.21-5.19c0-2.67,2.24-4.49,4.63-4.49
		c0.84,0,1.96,0.14,2.67,0.42c0.28,0.14,0.98,0.42,1.26,0.42c0.14,0,0.28,0,0.42-0.28h0.7L140.27,293.87z"/>
	<path id="XMLID_9_" class="st1" d="M144.9,289.39h0.56c0.14,0.28,0.28,0.42,0.56,0.56c0.28,0,0.56,0,1.26,0h11.08
		c1.4,0,1.54-0.14,1.68-0.56h0.56l0.42,4.49h-0.7c-0.7-2.95-1.26-2.95-2.81-2.95h-3.37v13.19c0,2.38,0.42,2.38,3.37,2.67v0.7h-9.54
		v-0.7c2.95-0.14,3.37-0.14,3.37-2.38v-13.33h-2.95c-1.12,0-1.54,0-1.96,0.28c-0.42,0.28-0.56,0.7-1.12,2.67h-0.7L144.9,289.39z"/>
	<path id="XMLID_10_" class="st1" d="M210.97,298.08h4.21c1.54,0,1.96,0,2.1-2.1h0.84v5.33h-0.84c0-2.1-0.28-2.24-2.38-2.24h-4.07
		v5.75c0,1.96,0,1.96,1.96,1.96h2.95c1.96,0,2.67-0.42,3.51-3.51h0.7l-0.42,4.21h-14.45v-0.7c2.67,0.14,2.81-0.7,2.81-2.24v-11.36
		c0-2.1-0.56-2.38-2.81-2.38v-0.7h13.75l0.14,3.79h-0.7c-0.42-2.67-0.98-2.81-2.95-2.81h-4.35V298.08z"/>
	<path id="XMLID_11_" class="st1" d="M234.26,307.48H225v-0.7c2.67,0.14,2.81-0.7,2.81-2.24v-11.5c0-0.84,0-1.96-1.68-1.96
		c-0.56,0-0.98,0-1.26,0.14v-0.84c1.12-0.14,3.51-0.42,7.29-0.42c1.54-0.14,7.29,0,7.29,5.05c0,3.37-2.81,5.19-5.89,5.19
		c-1.26,0-2.1-0.14-2.81-0.42v4.77c0,1.96,0.14,2.1,3.51,2.24V307.48z M230.75,299.06c0.56,0.14,1.26,0.42,2.1,0.42
		c3.65,0,3.65-3.93,3.65-4.49c0-1.26-0.42-4.35-4.21-4.35c-0.56,0-1.26,0.14-1.54,0.14V299.06z"/>
	<path id="XMLID_14_" class="st1" d="M251.51,289.81v0.7c-2.67,0.14-2.95,0.7-2.95,2.81v7.29c0,2.1,0,5.89,4.91,5.89
		c1.68,0,4.21-0.56,5.19-2.81c0.42-0.98,0.28-2.81,0.28-4.07v-5.89c0-2.67,0-3.09-2.95-3.37v-0.7h7.15v0.7
		c-2.67,0-2.81,0.7-2.81,2.38v7.29c0,2.67,0,7.72-7.29,7.72c-1.54,0-5.19-0.14-6.73-3.09c-0.7-0.98-0.7-2.67-0.7-3.65v-7.86
		c0-2.1,0-2.38-2.95-2.67v-0.84L251.51,289.81L251.51,289.81z"/>
	<path id="XMLID_15_" class="st1" d="M266.1,290.23c1.96-0.28,4.49-0.42,7.29-0.42c0.56-0.14,2.24,0,4.07,0.42
		c1.68,0.56,3.09,1.54,3.09,3.37c0,2.67-2.81,3.51-4.07,3.79c1.96,0.42,5.19,1.26,5.19,4.91c0,2.38-1.4,3.65-2.95,4.35
		c-1.26,0.7-2.95,0.7-4.35,0.7h-8.84v-0.7c2.95-0.42,3.37-0.7,3.37-3.37v-10.24c0-1.68-0.14-1.96-2.67-2.1v-0.7H266.1z
		 M271.57,297.24h1.4c1.96,0,4.35-0.28,4.35-3.51c0-1.54-0.84-2.38-1.96-2.81c-1.26-0.28-2.67-0.28-3.79-0.28V297.24z
		 M271.57,304.11c0,1.4,0.14,2.38,2.38,2.38c0.42,0,1.54,0,2.67-0.56c1.12-0.42,2.1-1.4,2.1-3.51c0-2.24-1.12-3.51-2.67-3.93
		c-1.4-0.56-3.09-0.42-4.49-0.42V304.11z"/>
	<path id="XMLID_19_" class="st1" d="M295.28,289.95v0.7c-2.95,0.14-3.37,0.14-3.37,1.96v12.34c0,1.26,0,1.54,2.81,1.54
		c2.95,0,3.79-0.28,5.33-3.37h0.7l-1.68,4.21h-13.05v-0.7c2.67,0.14,2.81-0.7,2.81-2.24v-10.8c0-2.67,0-2.95-3.09-2.95v-0.7
		L295.28,289.95L295.28,289.95z"/>
	<path id="XMLID_20_" class="st1" d="M312.25,290.79c-2.95,0.14-2.95,0.56-2.95,3.51v9.82c0,2.24,0.56,2.67,3.09,2.67v0.7h-8.84
		v-0.7c1.96-0.14,2.1-0.14,2.38-0.7c0.42-0.7,0.42-2.81,0.42-3.65v-8.84c0-2.1-0.42-2.67-2.95-2.67v-0.7h8.84V290.79z"/>
	<path id="XMLID_21_" class="st1" d="M333.29,294.58h-0.56c-0.42-0.7-0.98-1.96-1.96-2.67c-1.12-0.98-2.38-1.68-4.35-1.68
		c-4.21,0-6.59,4.21-6.59,8.84c0,5.33,3.37,8,6.31,8c4.07,0,6.45-2.95,7.29-3.93h0.7c-0.56,1.54-0.98,2.24-2.24,4.35
		c-0.98,0-1.4,0-2.24,0c-2.38,0.28-2.67,0.28-3.51,0.28c-7.15,0-9.26-5.33-9.26-8.84c0-5.19,4.21-9.54,9.54-9.54
		c1.54,0,2.67,0.28,4.91,1.26c0.14,0.14,0.42,0.14,0.7,0.14c0.42,0,0.56-0.14,0.7-0.28h0.7L333.29,294.58z"/>
	<path id="XMLID_22_" class="st1" d="M353.63,286.72c0-2.24-0.28-3.51-3.09-3.51h-1.4v-0.84c1.12,0,3.79-0.14,5.05-0.14
		c2.1-0.14,5.19-0.14,5.89-0.14c3.51,0,6.59,0.56,8,1.54c1.68,1.12,2.67,2.67,2.67,4.35c0,2.24-1.96,4.35-4.63,4.91
		c3.79,1.12,5.89,3.51,5.89,6.59c0,3.37-2.1,7.72-8.7,7.72h-14.73v-0.7h0.98c3.37,0,4.07-0.84,4.07-3.37L353.63,286.72
		L353.63,286.72z M357,293.03h4.35c3.79,0,5.75-1.54,5.75-4.77c0-2.81-1.68-5.33-6.59-5.33c-0.84,0-2.67,0.14-3.51,0.14V293.03z
		 M357,302.29c0,3.09,1.26,4.21,4.77,4.21c5.19,0,6.73-3.37,6.73-6.45c0-3.09-2.38-6.31-7.15-6.31H357V302.29z"/>
	<path id="XMLID_26_" class="st1" d="M385.19,289.39l5.61,14.87c0.7,1.96,0.84,2.24,2.95,2.38v0.7h-8.56v-0.7
		c1.4,0,2.67-0.14,2.67-1.26c0-0.42-0.14-1.4-0.42-2.1l-1.26-3.51h-5.75l-0.98,2.52c-0.28,0.7-0.7,1.96-0.7,2.81
		c0,1.26,1.26,1.4,2.81,1.54v0.7h-7.01v-0.7c1.96-0.42,2.24-1.12,3.09-3.51l5.05-12.76l-0.42-1.12h2.95L385.19,289.39L385.19,289.39
		z M380.84,298.78h4.91l-2.38-6.45L380.84,298.78z"/>
	<path id="XMLID_29_" class="st1" d="M400.48,289.95l11.92,13.19v-10.1c0-1.12,0-2.1-1.26-2.24c-0.28,0-1.54-0.14-1.96-0.14v-0.7
		h7.29v0.7c-2.67,0-2.81,0.7-2.81,2.38v14.45h-0.98l-13.05-14.45v10.8c0,2.67,0.56,2.81,3.37,2.81v0.7h-7.43v-0.7
		c2.67,0.14,2.81-0.7,2.81-2.24v-11.36c0-2.24-1.12-2.24-2.67-2.38v-0.7L400.48,289.95L400.48,289.95z"/>
	<path id="XMLID_30_" class="st1" d="M438.22,289.95v0.7c-2.95,0.14-3.09,0.28-4.91,2.67c-2.67,3.51-2.95,4.07-4.21,4.91
		c1.12,0.84,1.68,1.4,6.31,6.45c1.12,1.4,1.96,1.96,3.79,1.96v0.7h-8.56v-0.7c1.26,0,2.24,0.14,2.24-0.56c0-0.7-2.81-3.65-3.65-4.49
		c-1.68-1.96-2.38-2.38-3.51-2.38v5.75c0,0.98,0,1.96,1.68,1.96h0.98v0.7h-8.56v-0.7c2.67,0.14,2.81-0.7,2.81-2.24v-11.78
		c0-1.54,0-1.96-2.95-1.96v-0.7h8.84v0.7c-2.67,0-2.81,0.7-2.81,2.38v5.19c1.12,0,2.1-0.14,4.07-2.38c1.26-1.4,2.81-3.79,2.81-4.49
		c0-0.56-0.56-0.56-1.96-0.7v-0.7h7.86v-0.28H438.22z"/>
	<path id="XMLID_31_" class="st1" d="M184.04,303.55c0,2.38,0.98,3.09,3.37,3.09h0.84v0.7h-11.36v-0.7h0.7
		c2.38,0,3.37-0.7,3.37-3.51V286.3c0-2.38-0.7-3.09-3.09-3.09h-0.84v-0.84c0.98,0,3.51-0.14,5.05-0.14
		c1.54-0.14,2.38-0.14,5.05-0.14c7.29,0,10.8,2.95,10.8,7.15c0,2.95-2.1,5.61-5.33,6.45c0,0,1.4,0.7,2.24,1.96
		c0.98,1.54,2.67,4.63,4.07,6.45c2.24,3.09,5.05,2.67,5.05,2.67v0.7c-2.24,0.14-6.45,0.56-8.84-2.95c-1.68-2.67-2.81-4.91-3.65-6.03
		c-1.12-1.54-2.38-1.68-2.38-1.68c-0.98,0-1.68,0-2.67,0s-1.4,0-2.1,0v6.45h-0.28V303.55z M184.04,296.12
		c0.98,0.14,1.54,0.14,2.67,0.14c4.35,0,7.29-1.96,7.29-6.59c0-3.79-1.68-6.59-8-6.59c-0.7,0-1.26,0-1.96,0.14V296.12z"/>
	<path id="XMLID_34_" class="st1" d="M135.22,332.59h-5.33v-0.42c1.4,0,1.68-0.42,1.68-1.96v-9.54c0-1.12-0.42-1.4-1.68-1.54v-0.42
		h5.33v0.42c-1.4,0-1.96,0.28-1.96,1.96v9.4c0,1.26,0.28,1.68,1.96,1.68V332.59z"/>
	<path id="XMLID_35_" class="st1" d="M142.38,323.75l-0.28,0.98h-2.81v5.19c0,1.4,0.98,1.96,1.4,1.96c0.56,0,0.98-0.42,1.4-1.12
		l0.28,0.28c-0.56,1.26-1.4,1.96-2.38,1.96c-1.26,0-2.24-0.98-2.24-2.52v-5.61h-0.98v-0.28c0.84-0.42,1.54-1.4,2.1-2.81h0.42v2.1
		h3.09V323.75z"/>
	<path id="XMLID_36_" class="st1" d="M144.34,322.63c0.98-0.56,1.68-1.4,1.68-2.1c0-0.28-0.14-0.56-0.42-0.56
		c-0.14,0-0.28,0.14-0.42,0.14c-0.56,0-0.98-0.42-0.98-0.98c0-0.56,0.42-1.12,1.12-1.12c0.84,0,1.54,0.84,1.54,1.96
		c0,1.4-0.98,2.67-2.38,3.37L144.34,322.63z"/>
	<path id="XMLID_37_" class="st1" d="M148.41,330.49c0.28,1.26,1.12,1.96,2.1,1.96c0.84,0,1.54-0.56,1.54-1.4
		c0-0.42-0.14-0.7-0.7-1.4c-1.54-1.54-3.51-1.68-3.51-3.51c0-1.4,1.12-2.38,2.81-2.38c0.56,0,1.26,0.14,1.96,0.28v2.1h-0.42
		c-0.14-1.12-0.84-1.96-1.68-1.96c-0.7,0-1.4,0.42-1.4,1.12c0,1.96,4.21,2.24,4.21,4.91c0,1.54-1.26,2.52-2.81,2.52
		c-0.42,0-0.7,0-0.98-0.14c-0.28,0-0.42-0.14-0.56-0.14c-0.14,0-0.28,0.14-0.42,0.28h-0.28l-0.28-2.38h0.42V330.49z"/>
	<path id="XMLID_38_" class="st1" d="M161.03,326.56c-0.14-0.14-0.14-0.14-0.14-0.28c0-0.84,1.96-2.52,3.23-2.52
		c0.7,0,1.68,0.28,2.38,1.12c0.28,0.42,0.28,0.7,0.28,1.96v2.81c0,1.96,0,2.24,0.56,2.24c0.28,0,0.56,0,1.12-0.56l0.14,0.42
		c-1.26,0.98-1.96,1.12-2.24,1.12c-0.84,0-0.98-0.98-0.98-1.26c-1.54,1.26-1.96,1.26-2.67,1.26c-1.26,0-2.1-0.7-2.1-1.96
		s1.26-1.68,2.67-2.1c0.42-0.14,1.12-0.28,1.96-0.84v-1.68c0-0.7,0-0.98-0.42-1.4c-0.28-0.42-0.7-0.7-1.26-0.7
		c-0.7,0-1.4,0.7-1.4,1.12c0,0.14,0.14,0.28,0.14,0.42L161.03,326.56z M165.52,328.38c-0.42,0.28-0.84,0.42-1.4,0.7
		c-1.26,0.56-1.96,0.7-1.96,1.68c0,0.7,0.7,1.26,1.26,1.26c0.42,0,0.7-0.14,1.96-0.98v-2.67H165.52z"/>
	<path id="XMLID_41_" class="st1" d="M178.15,335.96c0,1.12,0.56,1.4,1.4,1.4h0.56v0.42h-5.19v-0.42h0.28c1.12,0,1.4-0.42,1.4-1.68
		v-9.82c0-0.42,0-0.56-0.56-0.7l-0.7-0.14v-0.42l2.38-1.4h0.42v2.1c1.4-1.12,2.67-1.68,3.51-1.68c1.68,0,3.23,1.96,3.23,4.21
		c0,2.67-2.1,5.05-4.63,5.05c-0.56,0-1.12-0.14-1.96-0.56v3.65H178.15z M178.15,330.91c0.84,0.7,1.96,1.26,2.67,1.26
		c1.54,0,2.67-1.54,2.67-3.37c0-2.81-1.68-3.93-2.95-3.93c-0.7,0-1.4,0.42-2.24,1.12L178.15,330.91L178.15,330.91z"/>
	<path id="XMLID_44_" class="st1" d="M189.79,331.05c0,0.84,0.28,1.12,1.4,1.12h0.84v0.42h-5.19v-0.42c1.12,0,1.4-0.42,1.4-1.54
		v-5.05l-1.4-0.56v-0.42l2.38-0.84h0.56v2.38c1.12-1.96,1.4-2.24,2.1-2.24c0.28,0,0.28,0,0.7,0.14c0.28,0.14,0.7,0.14,1.12,0.28
		l-0.42,1.4c-0.42,0-0.84-0.14-1.26-0.42c-0.14,0-0.42-0.14-0.7-0.14c-0.42,0-0.7,0.28-0.84,0.56c-0.28,0.42-0.56,0.7-0.7,1.12
		V331.05z"/>
	<path id="XMLID_45_" class="st1" d="M197.79,331.05c0,0.7,0.42,1.12,1.54,1.12v0.42h-4.91v-0.42c1.4,0,1.96-0.42,1.96-1.54v-4.35
		c0-0.98-0.14-0.98-0.7-1.12l-0.98-0.14v-0.42l2.81-0.98h0.42L197.79,331.05L197.79,331.05z M196.8,318.56
		c0.56,0,0.98,0.28,0.98,0.84c0,0.42-0.42,0.84-0.98,0.84c-0.56,0-0.98-0.42-0.98-0.84C195.82,318.84,196.24,318.56,196.8,318.56z"
		/>
	<path id="XMLID_48_" class="st1" d="M204.52,332.73l-3.23-7.29c-0.28-0.84-0.56-0.98-0.98-1.12l-0.56-0.14v-0.42h4.49v0.42
		c-1.4,0.14-1.96,0.28-1.26,1.26l2.24,5.61l2.24-5.05c0.42-0.84,0.28-1.54-1.4-1.68v-0.42h3.93v0.42c-0.84,0.14-1.4,0.7-1.96,1.68
		l-2.95,7.01L204.52,332.73L204.52,332.73z"/>
	<path id="XMLID_49_" class="st1" d="M214.34,331.05c0,0.7,0.42,1.12,1.68,1.12v0.42h-4.91v-0.42c1.4,0,1.96-0.42,1.96-1.54v-4.35
		c0-0.98-0.14-0.98-0.7-1.12l-0.98-0.14v-0.42l2.81-0.98h0.28v7.43H214.34z M213.5,318.56c0.56,0,0.98,0.28,0.98,0.84
		c0,0.42-0.42,0.84-0.98,0.84c-0.56,0-0.98-0.42-0.98-0.84C212.37,318.84,212.8,318.56,213.5,318.56z"/>
	<path id="XMLID_52_" class="st1" d="M220.51,330.91c0,0.84,0.42,1.26,1.26,1.26h0.42v0.42h-5.05v-0.42c1.4,0,1.96-0.42,1.96-1.4
		v-10.8c0-0.56,0-0.7-0.56-0.84l-0.98-0.14v-0.28l2.81-0.98h0.28L220.51,330.91L220.51,330.91z"/>
	<path id="XMLID_53_" class="st1" d="M225,326.98c0,0.28,0,0.56,0,0.84c0,2.38,1.54,3.79,3.23,3.79c1.12,0,1.96-0.42,2.81-1.4
		l0.28,0.28c-0.84,1.12-2.24,2.24-3.93,2.24c-2.1,0-3.79-1.96-3.79-4.49c0-2.24,1.54-4.63,4.21-4.63c2.95,0,2.95,2.1,3.65,2.81v0.56
		L225,326.98L225,326.98z M229.63,326.56c-0.28-1.54-1.12-2.38-2.24-2.38c-0.7,0-1.96,0.28-2.24,2.38H229.63z"/>
	<path id="XMLID_56_" class="st1" d="M242.95,325.58c-0.28,0-1.4,0-2.24-0.28c0.14,0.28,0.42,0.7,0.42,1.4
		c0,1.68-1.4,3.37-3.93,3.37c-0.42,0-0.56,0-0.98-0.14c-0.28,0.42-1.26,0.56-1.26,1.12c0,0.56,0.84,0.7,3.09,0.7
		c2.67,0.14,3.51,0.14,4.21,0.84c0.42,0.56,0.56,1.12,0.56,1.54c0,1.4-1.96,3.65-6.03,3.65c-2.24,0-3.51-0.98-3.51-2.1
		c0-1.26,1.4-1.4,2.38-2.67c-1.12-0.14-2.1-0.84-2.1-1.54c0-1.12,1.54-1.12,2.24-1.68c-1.26-0.56-2.1-1.4-2.1-2.67
		c0-1.96,1.68-3.37,3.93-3.37c0.98,0,1.96,0.28,2.38,0.84c0.98,0,1.96-0.14,2.95-0.28V325.58z M237.34,324.03
		c-0.84,0-2.1,0.42-2.1,2.52c0,1.26,0.56,2.95,2.24,2.95c1.26,0,2.1-0.98,2.1-2.67C239.59,325.16,238.61,324.03,237.34,324.03z
		 M237.9,337.08c1.96,0,3.65-1.12,3.65-2.67c0-0.84-0.7-1.26-1.4-1.26c-0.56-0.14-3.51-0.14-4.21-0.28c-0.56,0.84-1.4,1.12-1.4,1.96
		C234.68,335.96,236.08,337.08,237.9,337.08z"/>
	<path id="XMLID_60_" class="st1" d="M245.62,326.98c0,0.28-0.14,0.56-0.14,0.84c0,2.38,1.68,3.79,3.51,3.79
		c1.12,0,1.96-0.42,2.81-1.4l0.28,0.28c-0.98,1.12-2.38,2.24-3.93,2.24c-2.24,0-3.79-1.96-3.79-4.49c0-2.24,1.54-4.63,4.21-4.63
		c2.95,0,2.95,2.1,3.65,2.81v0.56L245.62,326.98L245.62,326.98z M250.25,326.56c-0.28-1.54-1.12-2.38-2.24-2.38
		c-0.7,0-1.96,0.28-2.38,2.38H250.25z"/>
	<path id="XMLID_63_" class="st1" d="M265.26,323.75l-0.42,0.98h-2.81v5.19c0,1.4,0.98,1.96,1.54,1.96c0.42,0,0.84-0.42,1.26-1.12
		l0.42,0.28c-0.56,1.26-1.4,1.96-2.38,1.96c-1.4,0-2.24-0.98-2.24-2.52v-5.61h-1.12v-0.28c0.84-0.42,1.54-1.4,2.1-2.81h0.28v2.1
		h3.37V323.75z"/>
	<path id="XMLID_64_" class="st1" d="M271.29,323.61c2.81,0,4.91,1.96,4.91,4.63s-1.96,4.49-4.63,4.49c-2.81,0-4.91-1.96-4.91-4.49
		C266.66,325.16,269.05,323.61,271.29,323.61z M271.71,332.45c1.26,0,2.67-1.4,2.67-3.51c0-2.67-1.54-4.63-3.37-4.63
		c-1.4,0-2.81,1.4-2.81,3.37C268.2,330.35,269.75,332.45,271.71,332.45z"/>
	<path id="XMLID_67_" class="st1" d="M284.34,330.49c0.28,1.26,1.12,1.96,2.1,1.96c0.84,0,1.54-0.56,1.54-1.4
		c0-0.42-0.14-0.7-0.7-1.4c-1.54-1.54-3.51-1.68-3.51-3.51c0-1.4,1.12-2.38,2.81-2.38c0.7,0,1.26,0.14,1.96,0.28v2.1h-0.28
		c-0.28-1.12-0.98-1.96-1.96-1.96c-0.7,0-1.4,0.42-1.4,1.12c0,1.96,4.21,2.24,4.21,4.91c0,1.54-1.26,2.52-2.81,2.52
		c-0.42,0-0.7,0-0.98-0.14c-0.14,0-0.42-0.14-0.56-0.14s-0.28,0.14-0.42,0.28h-0.28l-0.28-2.38h0.56V330.49z"/>
	<path id="XMLID_68_" class="st1" d="M292.75,326.98c0,0.28-0.14,0.56-0.14,0.84c0,2.38,1.68,3.79,3.37,3.79
		c1.12,0,1.96-0.42,2.81-1.4l0.28,0.28c-0.98,1.12-2.24,2.24-3.93,2.24c-2.1,0-3.79-1.96-3.79-4.49c0-2.24,1.54-4.63,4.21-4.63
		c2.95,0,2.95,2.1,3.65,2.81v0.56L292.75,326.98L292.75,326.98z M297.38,326.56c-0.28-1.54-1.12-2.38-2.24-2.38
		c-0.7,0-1.96,0.28-2.24,2.38H297.38z"/>
	<path id="XMLID_71_" class="st1" d="M303.69,331.05c0,0.84,0.28,1.12,1.4,1.12h0.84v0.42h-5.19v-0.42c1.12,0,1.4-0.42,1.4-1.54
		v-5.05l-1.4-0.56v-0.42l2.67-0.84h0.42v2.38c1.12-1.96,1.4-2.24,2.1-2.24c0.28,0,0.28,0,0.7,0.14c0.28,0.14,0.7,0.14,1.26,0.28
		l-0.56,1.4c-0.42,0-0.84-0.14-1.26-0.42c-0.14,0-0.42-0.14-0.7-0.14c-0.42,0-0.7,0.28-0.84,0.56c-0.28,0.42-0.56,0.7-0.7,1.12
		L303.69,331.05L303.69,331.05z"/>
	<path id="XMLID_72_" class="st1" d="M313.37,332.73l-3.23-7.29c-0.28-0.84-0.56-0.98-0.98-1.12l-0.7-0.14v-0.42h4.49v0.42
		c-1.26,0.14-1.68,0.28-1.12,1.26l2.24,5.61l2.24-5.05c0.42-0.84,0.28-1.54-1.4-1.68v-0.42h3.93v0.42c-0.84,0.14-1.4,0.7-1.96,1.68
		l-2.95,7.01L313.37,332.73L313.37,332.73z"/>
	<path id="XMLID_73_" class="st1" d="M321.37,326.98c0,0.28-0.14,0.56-0.14,0.84c0,2.38,1.68,3.79,3.51,3.79
		c1.12,0,1.96-0.42,2.81-1.4l0.28,0.28c-0.98,1.12-2.38,2.24-3.93,2.24c-2.1,0-3.79-1.96-3.79-4.49c0-2.24,1.54-4.63,4.21-4.63
		c2.95,0,2.95,2.1,3.65,2.81v0.56L321.37,326.98L321.37,326.98z M326.14,326.56c-0.28-1.54-1.12-2.38-2.24-2.38
		c-0.7,0-1.96,0.28-2.38,2.38H326.14z"/>
	<path id="XMLID_76_" class="st1" d="M341.99,326.28c0.7-1.68,0.28-1.96-1.12-2.1v-0.42h3.79v0.42c-0.98,0.14-1.54,0.7-1.96,1.96
		l-3.65,9.4c-0.7,1.68-1.26,2.38-1.96,2.38c-0.56,0-0.84-0.28-0.84-0.84c0-0.84,1.26-0.56,1.96-1.12c0.14-0.28,0.56-0.84,0.7-1.26
		l0.7-1.68l-3.51-7.29c-0.42-0.98-0.84-1.4-1.68-1.4v-0.42h4.35v0.42c-1.26,0-1.4,0.42-0.98,1.4l2.67,5.33L341.99,326.28z"/>
	<path id="XMLID_77_" class="st1" d="M350.54,323.61c2.81,0,4.91,1.96,4.91,4.63s-1.96,4.49-4.63,4.49c-2.81,0-4.91-1.96-4.91-4.49
		C345.78,325.16,348.16,323.61,350.54,323.61z M350.97,332.45c1.26,0,2.67-1.4,2.67-3.51c0-2.67-1.54-4.63-3.51-4.63
		c-1.4,0-2.81,1.4-2.81,3.37C347.32,330.35,348.86,332.45,350.97,332.45z"/>
	<path id="XMLID_80_" class="st1" d="M367.66,332.03l-2.95,0.84v-1.68c-1.68,1.12-2.95,1.68-3.79,1.68c-1.12,0-2.24-0.7-2.24-2.24
		v-4.91c0-0.56-0.14-0.84-0.7-0.98l-0.7-0.14v-0.42l2.81-0.56v6.31c0,1.26,0.98,1.96,1.96,1.96c0.84,0,1.68-0.42,2.67-1.26V326
		c0-0.98-0.14-1.12-0.84-1.26l-1.12-0.14v-0.28l3.51-0.56v7.43c0,0.56,0.28,0.7,1.12,0.56l0.42-0.14v0.42L367.66,332.03
		L367.66,332.03z"/>
	<path id="XMLID_81_" class="st1" d="M273.96,240.99c0,0,0.14-0.14,0.14-0.42c0-0.42-0.42-0.42-1.26-0.84
		c-0.14,0-0.42-0.14-0.42-0.42c-0.84-0.84-0.42-1.54-0.84-2.52c-0.42-1.12-0.42-1.12-0.42-1.12s1.12,0.42,2.81,1.54
		c1.96,1.26,1.4,3.37,1.4,3.37s1.12,0.56,1.68-0.42c0.42-0.42,0.56-1.12,0.98-1.54c0.84-1.82,0.42-3.51,0.42-3.51
		s-0.14-0.56-0.56-1.68c-0.42-0.98-1.4-1.96-1.4-1.96c-2.38-1.96-5.89-1.54-8.84-2.67c-1.68-0.84-2.81-1.68-2.81-1.68
		s-0.84-0.42-1.26-0.84c-0.42-0.14-0.98-0.42-0.98-0.42s-1.12-0.42-2.52,0c-0.84,0.42-1.54,0.98-1.54,0.98s1.26-0.42,1.96,0.56
		c0.56,0.84,0.84,1.4,1.12,2.1c0.42,0.84,1.12,0.98,1.12,0.98s-0.84,0.42-1.68,0.98c-1.26,0.98-1.68,1.96-1.68,1.96s1.4-0.84,2.67,0
		c0.98,0.56,1.68,0.56,1.68,0.56s-1.4,0.84-2.38,1.96c-0.98,1.12-0.42,1.96-0.42,1.96s0.14-0.42,0.84-0.56c0.56-0.42,1.4,0,1.4,0
		s-0.84,0.42-1.4,1.54c-0.56,0.98-1.54,1.26-1.54,1.26s0.42,0.42,1.4,0.42c1.12,0.14,1.96-0.42,2.38-0.84
		c0.56-0.42,1.26-0.56,1.26-0.56c-0.84,2.52,0.56,3.37,0.56,3.37s0.42-0.98,1.4-1.96c1.4-1.26,3.09-1.26,3.09-1.26
		s0.84-0.14,1.96,0.14C273.25,240.29,273.96,240.99,273.96,240.99z"/>
	<path id="XMLID_82_" class="st1" d="M273.96,240.99c0,0,0.14-0.14,0.14-0.42c0-0.42-0.42-0.42-1.26-0.84
		c-0.14,0-0.42-0.14-0.42-0.42c-0.84-0.84-0.42-1.54-0.84-2.52c-0.42-1.12-0.42-1.12-0.42-1.12s1.12,0.42,2.81,1.54
		c1.96,1.26,1.4,3.37,1.4,3.37s1.12,0.56,1.68-0.42c0.42-0.42,0.56-1.12,0.98-1.54c0.84-1.82,0.42-3.51,0.42-3.51
		s-0.14-0.56-0.56-1.68c-0.42-0.98-1.4-1.96-1.4-1.96c-2.38-1.96-5.89-1.54-8.84-2.67c-1.68-0.84-2.81-1.68-2.81-1.68
		s-0.84-0.42-1.26-0.84c-0.42-0.14-0.98-0.42-0.98-0.42s-1.12-0.42-2.52,0c-0.84,0.42-1.54,0.98-1.54,0.98s1.26-0.42,1.96,0.56
		c0.56,0.84,0.84,1.4,1.12,2.1c0.42,0.84,1.12,0.98,1.12,0.98s-0.84,0.42-1.68,0.98c-1.26,0.98-1.68,1.96-1.68,1.96s1.4-0.84,2.67,0
		c0.98,0.56,1.68,0.56,1.68,0.56s-1.4,0.84-2.38,1.96c-0.98,1.12-0.42,1.96-0.42,1.96s0.14-0.42,0.84-0.56c0.56-0.42,1.4,0,1.4,0
		s-0.84,0.42-1.4,1.54c-0.56,0.98-1.54,1.26-1.54,1.26s0.42,0.42,1.4,0.42c1.12,0.14,1.96-0.42,2.38-0.84
		c0.56-0.42,1.26-0.56,1.26-0.56c-0.84,2.52,0.56,3.37,0.56,3.37s0.42-0.98,1.4-1.96c1.4-1.26,3.09-1.26,3.09-1.26
		s0.84-0.14,1.96,0.14C273.25,240.29,273.96,240.99,273.96,240.99z"/>
	<path id="XMLID_83_" class="st2" d="M272.41,239.31c-0.84-0.84-0.42-1.54-0.98-2.67c-0.42-0.98-0.42-0.84-0.42-0.84
		s1.12,0.42,2.95,1.54c1.96,1.26,1.4,3.37,1.4,3.37s0,0.14,0.56,0.14c0.42,0.14,0.84-0.14,0.56,0c0.14,0.14,0.42,0.56,0.42,0.56
		s0.56,2.52-0.98,3.51c-1.26,0.84-3.37,0.42-3.37,0.42s1.68-0.42,1.96-2.1c0.14-1.12-0.56-2.1-0.56-2.1s0.42-0.42,0.14-0.56
		C273.96,239.87,273.25,240.29,272.41,239.31z M234.54,215.46c0.56,0.84,0.84,1.4,0.84,1.4c-0.56,0.42-0.56,1.54,0,2.38
		c0.56,0.98,0.84,1.96,0.84,1.96s-0.42,0.56-0.42,1.4c0.14,1.4,0.84,2.67,1.96,4.07c1.68,1.96,1.96,2.95,1.96,2.95
		s-0.42,0.84,0.14,1.96c0.84,1.26,2.95,2.1,3.51,3.09c0.42,1.26,2.1,1.4,2.38,2.1c0.14,0.98,1.26,1.68,1.96,1.96
		c0.42,0,0.98,0.42,0.98,0.84c0.14,1.12,2.38,1.4,3.51,1.96c0,0-5.05,1.96-9.4,3.79c-4.07,1.96-6.45-1.12-6.45-1.12
		s0.84,4.91,5.61,5.75c2.52,0.42,4.63,0,4.63,0s-1.26,1.26-3.09,2.38c-1.96,1.12-3.37,0.56-3.37,0.56s1.12,1.96,4.49,1.12
		c1.68-0.42,2.95-1.26,2.95-1.26s0,0.98-1.54,1.96c-1.4,0.98-1.96,1.12-1.96,1.12s0.98,0.14,2.38,0.98
		c0.98,0.56,2.38,1.12,4.07,0.98c1.4-0.14,2.95-1.4,2.95-1.4s-0.42,0.84-0.42,1.12c0,0.84,0.42,1.12,0.42,1.12s0.14-2.1,4.63-0.42
		c4.63,1.68,6.87,0.42,6.87,0.42s-0.84-0.42-1.26-0.98c-0.14-0.42-0.14-0.98-0.14-0.98s1.4,1.26,5.33,0.42
		c2.95-0.56,4.91-2.81,4.91-2.81s-3.51-0.42-5.61-5.89c-1.26-3.09-0.84-4.91,0-6.31c0.84-1.4,1.96-1.96,1.96-1.96s-1.96,0-3.37,1.4
		c-0.98,0.98-1.26,1.96-1.26,1.96s-1.4-0.84-0.84-3.09c0,0-0.56,0-1.26,0.42c-0.42,0.42-1.12,0.98-2.1,0.98
		c-1.12-0.14-1.4-0.56-1.4-0.56s0.98-0.14,1.54-1.26c0.56-1.26,1.26-1.54,1.26-1.54s-0.56-0.14-1.26,0
		c-0.56,0.14-0.98,0.56-0.98,0.56s-0.42-0.84,0.42-1.96c1.12-1.4,2.52-1.96,2.52-1.96s-0.84-0.14-1.96-0.84
		c-1.26-0.84-2.67,0-2.67,0s0.56-1.12,1.96-1.96c0.98-0.84,1.68-1.12,1.68-1.12s-0.56,0-1.12-0.84c-0.42-0.84-0.56-1.54-1.12-2.1
		c-0.84-0.98-1.96-0.84-1.96-0.84s0.84-0.56,1.54-0.84c1.4-0.42,2.52-0.14,2.52-0.14s-4.07-4.49-6.31-10.94
		c-0.42-0.56-0.42-1.12-0.56-1.54c-3.37-11.92-4.21-12.62-4.21-12.62c-0.84,0-0.84,1.12-0.84,1.12s-1.12-0.84-4.49-7.01
		c-1.4-2.67-2.67-7.01-2.81-7.01c-0.56,0.42-0.98,0.98-1.12,1.96c0,0.84,0,1.96,0,1.96s-2.1-2.38-4.07-7.01
		c-1.26-3.09-2.1-7.43-2.67-7.29c-0.84,0.42-1.4,1.26-1.26,2.95c0.14,1.54,1.68,6.31,1.68,6.31h0.14c0,0-2.1-1.96-3.79-4.91
		c-1.54-2.95-2.95-7.29-3.37-7.29c-0.98,0.42-1.68,2.52,0.42,7.43c1.12,2.81,2.1,4.63,2.1,4.63s-2.95-1.12-4.91-6.45
		c-1.96-5.33-2.38-8.42-2.38-8.42s-0.56-0.42-1.12,0.98c-0.56,1.12-0.56,4.21,0.84,8c1.26,3.93,2.38,5.33,2.38,5.33
		s-1.96-0.84-3.51-3.09c-1.68-2.52-2.81-6.45-2.81-6.45s-0.42,0.14-0.56,0.56c-0.42,0.56-0.84,2.67,0.42,6.03
		c0.84,1.96,2.1,4.21,2.1,4.21s-1.26-0.56-1.96-1.54c-0.84-0.84-1.68-1.96-1.68-1.96c-0.98,0.42-0.14,3.09,0.84,4.91
		c0.84,1.96,1.68,2.81,3.09,4.07c1.4,1.54,1.26,2.52,1.26,2.52c-0.42,0.56,1.54,2.81,2.38,3.37c1.26,0.98,1.68,1.26,1.68,1.26
		s-1.12,0.42,1.4,2.67c0.84,0.42,0.98,0.84,0.98,0.84s-1.96,0.56,2.38,4.07c1.26,0.98,1.4,1.4,1.4,1.4
		c-0.84,0.84-0.42,1.26,0.42,2.38c0.42,0.42,0.42,1.26,0.42,1.26s-0.84,0.42,0,1.68C234.26,215.04,234.54,215.18,234.54,215.46z
		 M267.64,229.07c2.95,1.12,6.45,0.56,8.84,2.81c0,0-0.14-0.42-0.42-1.4c-0.14-1.68,0.14-1.96,1.96-4.49
		c3.37-4.35,13.75-15.43,15.43-19.5c0.84-1.68,1.54-4.63,2.38-7.43c0.98-3.79,1.54-7.29,1.54-7.29c-0.98-0.56-1.96,1.54-2.67,3.93
		c-0.42,0.98-0.56,1.68-0.56,1.68s-0.14-0.84,0.56-3.93c0.56-2.67,1.12-3.51,1.12-3.51c-0.56-0.42-1.96,0.42-2.95,3.37
		c-0.42,1.68-0.98,3.09-0.98,3.09s-0.14,0-0.14-1.4c-0.14-1.4,0.42-2.1,0.42-2.1s-1.12,0-1.96,1.96c-0.42,1.12-0.84,2.95-0.84,2.95
		c-0.56-0.42-0.56-1.68-0.56-1.68c-0.42,0-1.26,0.98-1.54,2.38c-0.42,1.12-0.42,2.67-0.42,2.67c-0.42-0.42-0.42-1.12-0.42-1.12
		s-0.98,0.56-1.54,2.81c-0.42,1.4-0.42,1.96-0.42,1.96c-0.42-0.42-0.42-1.12-0.42-1.12c-0.84,0.42-1.54,1.68-1.96,3.93
		c0,0-0.84-0.14-1.4,0.56c-0.42,0.84-0.98,2.67-1.96,3.37c-0.56-0.42-1.12,0.42-1.26,0.42c-0.42,0.84-0.98,1.96-1.54,2.38
		c-0.42-0.14-0.98,0-1.26,0.14c-0.56,0.42-1.12,1.96-1.54,2.1c-0.42-0.14-0.98,0-1.26,0.42c-0.42,0.42-0.56,1.12-1.12,1.68
		c-0.42-0.14-0.84,0-1.12,0.42c-0.56,0.56-0.56,1.12-0.98,1.54c-0.56-0.14-0.98,0.14-1.26,0.56c-0.42,0.42-0.42,0.98-0.84,1.54
		c-1.4,0.42-1.96,4.35-1.96,4.35S265.82,228.37,267.64,229.07z"/>
</g>
</svg>
