<svg width="448" height="448" viewBox="0 0 448 448" fill="none" xmlns="http://www.w3.org/2000/svg">
<path fill-rule="evenodd" clip-rule="evenodd" d="M0 224C0 347.713 100.287 448 224 448C347.713 448 448 347.713 448 224C448 100.287 347.713 0 224 0C100.287 0 0 100.287 0 224ZM334.893 221.401C336.373 222.875 336.373 225.255 334.893 226.729L237.591 323.641C234.07 327.162 228.794 321.876 232.309 318.365L320.383 230.349C321.831 228.907 321.326 227.735 319.216 227.735H118.923C116.829 227.735 115.136 226 115.136 224C115.136 221.943 116.808 220.271 118.923 220.271H319.216C321.305 220.271 321.852 219.125 320.383 217.657L232.309 129.635C228.794 126.12 234.07 120.843 237.591 124.359L334.893 221.401Z" fill="#FD8F00"/>
</svg>
